# xmcd
#
# Track frame offsets:
#	150
#	11470
#	23435
#	35147
#	50685
#	64422
#	74237
#	86142
#	98017
#	111285
#	125220
#	138515
#	152715
#	166292
#	178202
#	188552
#
# Disc length: 2662 seconds
#
# Revision: 1
# Processed by: cddbd v1.4PL0 Copyright (c) Steve Scherf et al.
# Submitted via: audiograbber 1.82.02
#
DISCID=e90a6410
DTITLE=Conway Twitty - The Conway Twitty Collection
DYEAR=1900
DGENRE=
TTITLE0=Hello Darlin'
TTITLE1=She Needs Someone to Hold Her (When She Cries)
TTITLE2=To See An Angel Cry
TTITLE3=Touch The Hand
TTITLE4=Baby's Gone
TTITLE5=I'll Try
TTITLE6=I'm Not Through Lovin' You
TTITLE7=(Lying Here With) Linda On My Mind
TTITLE8=Danny Boy
TTITLE9=Fifteen Years Ago
TTITLE10=After All The Good Is Gone
TTITLE11=You've Never Been This Far Before
TTITLE12=The Ganes That Daddies Play
TTITLE13=I Can't See Me Without You
TTITLE14=(I Can't Beleive) She Gives It All To Me
TTITLE15=It's Only Make Beleive
EXTD=
EXTT0=
EXTT1=
EXTT2=
EXTT3=
EXTT4=
EXTT5=
EXTT6=
EXTT7=
EXTT8=
EXTT9=
EXTT10=
EXTT11=
EXTT12=
EXTT13=
EXTT14=
EXTT15=
PLAYORDER=
